<svg width="6" height="5" viewBox="0 0 6 5" fill="none" xmlns="http://www.w3.org/2000/svg">
<path d="M5.30795 0.0625299C5.44003 0.140349 5.54405 0.243476 5.60899 0.38309C5.65221 0.568334 5.62148 0.713059 5.52662 0.878537C5.49146 0.930976 5.45474 0.981751 5.41698 1.03235C5.4033 1.05119 5.38962 1.07004 5.37553 1.08945C5.34666 1.12918 5.31767 1.16882 5.28855 1.20838C5.23105 1.28658 5.17428 1.3653 5.11751 1.44404C5.08921 1.48327 5.06088 1.52247 5.03251 1.56164C4.93729 1.69315 4.84321 1.82541 4.74982 1.95823C4.62846 2.13082 4.50536 2.30208 4.38156 2.47293C4.28639 2.60445 4.19231 2.73667 4.09894 2.86946C3.97758 3.04206 3.85448 3.21332 3.73068 3.38417C3.63551 3.51568 3.54143 3.64791 3.44805 3.7807C3.3256 3.95483 3.20167 4.12784 3.07659 4.3001C3.00987 4.39206 2.9436 4.48424 2.87873 4.57752C2.86711 4.59415 2.85549 4.61077 2.84351 4.6279C2.82212 4.65856 2.80087 4.68933 2.77982 4.72023C2.68753 4.85211 2.58821 4.94391 2.43268 4.99134C2.2453 5.01262 2.07679 5.00127 1.92326 4.8814C1.73427 4.71691 1.55801 4.53905 1.38028 4.36263C1.35362 4.33618 1.35362 4.33618 1.32642 4.30919C1.23252 4.21599 1.13872 4.12269 1.04499 4.02933C0.967746 3.95244 0.890321 3.87574 0.812727 3.79921C0.718506 3.70628 0.62461 3.61302 0.530937 3.51954C0.495383 3.48415 0.459718 3.44888 0.423939 3.41373C0.373852 3.36447 0.324196 3.31481 0.274617 3.26504C0.259981 3.25083 0.245345 3.23662 0.230266 3.22198C0.103475 3.09318 0.00814538 2.9352 0 2.75068C0.0216023 2.55626 0.0769592 2.42927 0.222928 2.29608C0.362616 2.18607 0.494629 2.1704 0.666342 2.16661C0.900398 2.20744 1.05486 2.4058 1.2138 2.56721C1.24154 2.5951 1.26929 2.62297 1.29707 2.65082C1.36971 2.72375 1.4421 2.79692 1.51445 2.87013C1.58849 2.94497 1.66275 3.01959 1.73699 3.09422C1.88232 3.24039 2.0274 3.3868 2.17232 3.53337C2.25728 3.50505 2.26662 3.49461 2.3145 3.42444C2.33265 3.39824 2.33265 3.39824 2.35116 3.37151C2.3641 3.35243 2.37704 3.33335 2.39037 3.31369C2.41848 3.27303 2.44662 3.23238 2.47478 3.19175C2.4893 3.17071 2.50383 3.14968 2.51879 3.128C2.58855 3.02783 2.66031 2.92914 2.73208 2.83041C2.84163 2.67928 2.95015 2.52748 3.05752 2.37479C3.23436 2.12342 3.41468 1.8746 3.59504 1.62574C3.7468 1.41627 3.89801 1.20648 4.04687 0.99492C4.15756 0.837811 4.26855 0.680918 4.38045 0.524657C4.39385 0.505762 4.40726 0.486867 4.42107 0.4674C4.64288 0.158756 4.89333 -0.131015 5.30795 0.0625299Z" fill="#D9D9D9"/>
</svg>
