<svg width="220" height="50" viewBox="0 0 220 50" fill="none" xmlns="http://www.w3.org/2000/svg">
<g clip-path="url(#clip0_398_265)">
<path d="M156.139 0L155.104 5.01101H186.866L187.896 0H156.139Z" fill="white"/>
<path d="M148.554 36.8547H180.312L179.285 41.8657H147.515L148.558 36.8547H148.554Z" fill="white"/>
<path d="M154.461 8.15869H186.222L185.196 13.1575H153.434L154.461 8.15869Z" fill="white"/>
<path d="M146.868 44.993L145.825 50.0041H177.603L178.625 44.993H146.864H146.868Z" fill="white"/>
<mask id="mask0_398_265" style="mask-type:luminance" maskUnits="userSpaceOnUse" x="0" y="0" width="220" height="50">
<path d="M220 0H0V50H220V0Z" fill="white"/>
</mask>
<g mask="url(#mask0_398_265)">
<path d="M220 16.4111L219.279 19.9339H211.189L210.492 23.3303H218.02L217.295 26.8531H209.763L209.071 30.2169H217.161L216.472 33.5562H203.592L207.115 16.4233L219.996 16.4152H220V16.4111ZM194.54 19.9339L190.931 26.8449H195.143L194.54 19.9339ZM198.431 16.4111L201.518 33.5439H196.182L195.73 30.4085H189.114L187.322 33.5439H182.401L192.719 16.4111H198.435H198.431ZM173.28 23.685H175.093C175.818 23.7421 176.547 23.6116 177.211 23.3099C177.761 23.0245 178.14 22.4863 178.218 21.8706C178.405 21.3365 178.238 20.7453 177.802 20.3865C177.277 20.0521 176.662 19.8931 176.042 19.9298H174.059L173.28 23.685ZM177.513 16.4111C179.097 16.3907 180.67 16.7128 182.12 17.357C183.342 17.9319 183.77 19.1103 183.407 20.888C183.232 22.1112 182.572 23.2161 181.578 23.9541C180.633 24.5902 179.562 25.0101 178.438 25.1855C180.075 25.2548 180.984 25.8174 181.179 26.8816C181.371 28.0314 181.395 29.2057 181.252 30.3636C181.191 30.9589 181.13 31.5909 181.098 32.1658C181.069 32.6347 181.085 33.1077 181.155 33.5766L176.006 33.5521C175.94 33.2178 175.928 32.8712 175.977 32.5328C176.034 31.9212 176.152 31.2933 176.242 30.6817C176.356 29.8581 176.368 29.0222 176.283 28.1986C176.189 27.4402 175.696 27.061 174.796 27.061H172.6L171.264 33.5562H166.457L169.989 16.4233H177.517V16.4111H177.513ZM158.538 23.1427C159.113 23.1876 159.691 23.0449 160.176 22.7309C160.567 22.4088 160.828 21.9481 160.901 21.4466C161.011 21.0307 160.909 20.5863 160.628 20.2601C160.261 19.8972 159.752 19.7137 159.239 19.7667H156.864L156.172 23.1305L158.538 23.1387V23.1427ZM157.259 30.2046C157.829 30.2536 158.396 30.1149 158.88 29.8132C159.227 29.589 159.512 29.2791 159.699 28.908C160.074 28.1415 159.764 27.22 159.007 26.8327C158.746 26.7022 158.453 26.6492 158.168 26.6818H155.438L154.717 30.2046H157.259ZM160.278 16.407C160.709 16.3948 161.145 16.407 161.577 16.4559C162.188 16.5253 162.795 16.6476 163.386 16.8188C164.148 17.039 164.836 17.459 165.382 18.0379C166.054 18.886 166.274 20.0073 165.96 21.0429C165.757 22.0133 165.227 22.8859 164.461 23.5138C163.642 24.2028 162.62 24.5983 161.549 24.6391C162.469 24.9041 163.321 25.3689 164.038 26.005C164.791 26.7838 165.044 27.9173 164.693 28.9407C164.461 30.4533 163.537 31.7744 162.192 32.5083C160.49 33.2993 158.62 33.6622 156.742 33.5684L149.214 33.5439L152.746 16.4111L160.274 16.4029H160.278V16.407ZM149.735 16.407L149.006 19.9298H140.912L140.22 23.3221H147.752L147.022 26.8449H139.499L138.802 30.2087H146.892L146.208 33.5521H133.315L136.843 16.4152L149.731 16.407H149.735ZM116.569 27.9988H121.318C121.249 28.2964 121.229 28.6022 121.257 28.908C121.302 29.3076 121.489 29.6787 121.783 29.9559C122.247 30.3188 122.834 30.49 123.42 30.437C124.121 30.4656 124.813 30.2902 125.412 29.9314C125.848 29.6868 126.17 29.2832 126.312 28.8061C126.345 28.6512 126.341 28.4922 126.304 28.3413C126.215 27.9376 125.987 27.5788 125.657 27.3301C125.16 26.9836 124.589 26.7634 123.995 26.6818C122.239 26.4576 120.569 25.8052 119.127 24.7818C118.284 23.897 117.966 22.6331 118.284 21.4547C118.528 19.6974 119.624 18.1766 121.212 17.3937C122.854 16.5049 124.695 16.0523 126.561 16.0727C129.294 16.1583 131.005 16.7047 131.685 17.7118C132.378 18.8289 132.578 20.1826 132.239 21.4506L127.445 21.4262C127.571 20.9695 127.478 20.4802 127.184 20.1051C126.777 19.7137 126.219 19.5221 125.657 19.5832C125.094 19.5629 124.536 19.7219 124.068 20.0358C123.697 20.2642 123.42 20.6189 123.29 21.0307C123.282 21.0837 123.27 21.1326 123.257 21.1897C123.225 21.5648 123.363 21.9399 123.64 22.1968C124.011 22.5434 124.496 22.7472 125.005 22.7676C125.347 22.8329 125.706 22.9022 126.088 22.9756C126.471 23.049 126.842 23.1346 127.233 23.2324C128.41 23.5178 129.518 24.0357 130.492 24.7614C131.478 25.6095 131.844 26.9754 131.417 28.2027C131.123 30.0578 129.995 31.6765 128.357 32.5939C126.679 33.495 124.797 33.9557 122.891 33.9272C121.013 34.1188 119.131 33.5806 117.636 32.4227C116.569 31.228 116.169 29.5726 116.581 28.0233L116.573 27.9988H116.569Z" fill="white"/>
<path d="M55.6121 21.1978C55.1477 21.0388 54.6629 20.9736 54.1741 21.0021H52.9276L52.8746 24.2803H54.1252C54.614 24.3047 55.1069 24.2395 55.5713 24.0846C55.8972 23.9092 56.0764 23.5545 56.0276 23.1876L56.0439 22.0948C56.1009 21.736 55.9298 21.3772 55.6121 21.1978Z" fill="white"/>
<path d="M8.65629 9.19836L0 41.2582H99.0157L107.676 9.20244H8.65629V9.19836ZM21.1498 33.2015H13.5079L9.68689 16.7985H15.2147L17.2922 27.2078H17.5325L19.9319 16.7985H25.4597L21.1498 33.2015ZM31.7696 33.2015H26.5269L26.7673 16.8025H32.0099L31.7696 33.2015ZM46.2388 20.9981H42.4341L42.259 33.2015H37.0122L37.1874 20.9981H33.3868L33.4479 16.7985H46.2918L46.2347 20.9981H46.2388ZM56.0235 33.2015L53.95 28.325H52.8135L52.7402 33.2015H47.4975L47.7338 16.7985H55.995C59.7548 16.7985 61.6042 18.7148 61.5472 22.5515C61.5105 25.1773 60.6673 26.9061 59.0257 27.7379L61.7875 33.2015H56.0194H56.0235ZM68.2686 33.2015H63.0178L63.2581 16.5946H68.5007L68.2686 33.2015ZM84.2369 33.2015H79.2956C79.2956 33.2015 75.1488 26.4494 75.1406 26.1192H75.0306L74.9288 33.2055H69.6821L69.9183 16.8025H74.8555C74.8555 16.8025 79.0064 23.5505 79.0146 23.8848H79.1205L79.2223 16.7985H84.465L84.2369 33.2015ZM97.9851 33.2015H85.4997L85.7359 16.7985H98.0014V20.9981H90.9215L90.889 23.208H98.0014V27.0121H90.8319L90.8034 29.0018L98.0136 28.9692L97.9851 33.2055V33.2015Z" fill="white"/>
</g>
</g>
<defs>
<clipPath id="clip0_398_265">
<rect width="220" height="50" fill="white"/>
</clipPath>
</defs>
</svg>
